<svg width="250" height="250" viewBox="0 0 250 250" fill="none" xmlns="http://www.w3.org/2000/svg">
<rect width="250" height="250" fill="url(#paint0_angular_351_62)"/>
<path d="M97.5962 47.274H92.4038L91.5385 47.5619L87.7885 47.8497L84.6154 50.4406L83.4615 53.3193L81.1538 53.6072L80.8654 69.7282H82.3077L87.7885 76.3493L95.8654 76.925V78.9401L96.1538 79.8038V82.6825L90.6731 86.137L82.8846 94.4853L75.6731 108.015L67.5962 100.531L54.6154 82.9704L48.5577 83.5461L43.0769 92.1824L42.7885 96.2126H41.9231H40.7692V114.349H42.5V116.94V122.985V124.136L45.6731 125.288L45.9615 126.151V129.318L46.25 131.333H47.4038H48.8462V134.212H35.2885L35 140.545L38.1731 148.606L43.9423 157.53L53.4615 165.878L59.5192 168.469V189.772L62.4038 190.06L62.9808 195.241L63.2692 196.105L72.5 209.059L74.5192 209.347L76.5385 207.332L82.8846 215.392L87.2115 218.271L90.6731 211.65L92.6923 209.347L93.5577 210.786L93.8462 213.377V222.589L101.346 222.877H104.231H109.423L110 221.15H112.308L113.173 220.862H115.481V219.711L120.096 218.271L128.462 212.802L128.75 222.877L138.269 222.014L148.077 216.256L148.942 221.726H151.538L152.404 221.438L157.019 220.574L164.519 216.544L174.327 206.756L178.942 215.968L180.673 216.256L186.442 211.362L191.346 204.453L194.519 198.984L196.827 190.923H199.135L200.577 190.635L203.75 188.908L204.038 179.408V159.257H201.442V152.924L199.712 152.636L199.423 150.909L199.135 148.318L196.827 147.166L196.538 145.439V143.424L193.942 143.136L194.231 133.924H189.615L187.885 133.636V132.197V129.03L197.115 121.258L210.096 120.97H212.692H215V114.637L212.981 114.061L212.692 111.182L202.885 101.394L200.577 101.106L196.25 97.652H192.212L191.346 95.9247H177.212V92.4702L180.385 89.8794L180.096 65.9858H177.5V64.2586L177.212 63.1071V61.6677L172.885 59.9404L172.596 57.3496L146.923 58.2132L146.635 38.3499H144.327L144.038 36.6226L143.75 35.1833L141.442 34.3197L141.154 32.0167H137.692L137.404 28.85H130.769L130.192 27.1228L111.731 27.4107V28.85L105.962 29.1379V32.0167H102.212L101.923 34.6075H100.192L99.9038 38.3499L97.5962 38.6378V47.274Z" fill="#070518"/>
<path d="M106.538 36.3348L105.096 40.365L106.827 40.6529L108.558 38.062L108.269 36.3348H106.538Z" fill="#FEFEFE"/>
<path d="M151.25 62.2434L150.096 62.5313L141.154 65.1222L141.442 66.8494L153.846 65.6979L155 71.1675H162.211V67.1373H167.981L168.846 65.4101V64.5464V62.5313L151.25 62.2434Z" fill="#FEFEFE"/>
<path d="M97.3076 88.44L90.673 95.349V98.2277L87.7883 104.273V111.47L94.7114 112.909L95.2883 120.106L98.173 125.288L106.25 132.197L121.538 135.651L125.288 139.106L126.442 145.151L123.558 151.197L118.365 154.939L113.75 155.803L115.769 150.909V147.166L115.481 146.303L113.75 144L94.9999 133.348L83.4614 124.136L63.846 105.137L52.8845 91.6066L49.9999 99.0913L50.5768 101.682L52.0191 109.167L56.346 117.515L69.3268 132.197L67.0191 137.091L73.6537 143.712L69.6153 143.424L51.4422 140.545L52.0191 143.424L56.346 148.318L64.1345 153.5L74.8076 156.666L74.5191 161.272L80.5768 165.014L84.6153 164.439L86.6345 163.575L85.4806 164.727L76.5383 169.62L73.0768 179.696L72.7883 187.469H75.673L79.1345 180.56L79.7114 179.696L82.596 176.529V187.469L85.7691 194.953L97.0191 186.893L104.519 184.014L102.788 191.787L103.365 201.287H112.019L120.096 197.256H124.711L132.211 189.484L135.096 181.711L136.827 184.302L137.404 191.499L137.115 193.226V193.802L139.134 195.529L139.423 202.726L142.019 203.014L149.808 195.817L152.692 186.029L155 185.741L156.154 188.62V191.211L157.596 191.499L159.615 198.984H161.634L163.077 196.393L164.519 191.499L163.365 170.772L163.077 141.985H164.808L165.096 140.257L161.346 136.227L159.615 131.333H158.173L158.461 129.606L158.75 128.742L161.346 115.5L167.692 102.834V101.682L162.211 101.394L161.923 99.955L160.769 96.5005L155.865 91.8945L148.365 89.3036V84.9855L136.25 84.6976V81.531L138.846 81.2431V80.0916L138.558 78.6523L137.115 78.3644L135.673 78.0765L122.404 77.7887L108.846 81.531L97.3076 88.44Z" fill="#FEFEFE"/>
<path d="M190.192 149.469L189.904 149.757L189.615 167.605L192.788 168.181V179.984H197.404V166.742H195.961V158.106H193.654L193.077 152.06L190.192 149.469Z" fill="#FEFEFE"/>
<path d="M113.173 61.3798L114.327 61.6677L116.346 61.3798L117.5 61.092V53.3194L124.711 52.4557L128.461 46.4104L126.731 40.6529L123.558 38.3499L120.673 38.062V35.4712L118.654 35.1833L118.365 38.062L113.173 38.3499V42.668H122.404L123.846 45.8346L122.692 49.0012H113.461L113.173 61.3798Z" fill="#070518"/>
<path d="M132.5 51.3042L135.673 51.5921L135.385 49.577H132.788L132.5 51.3042Z" fill="#070518"/>
<path d="M95.5768 68.0009L97.8845 68.5767L99.0384 67.4252L99.9038 62.5313L98.4615 61.3798L94.9999 61.9556H92.1153L92.6922 59.9405L94.423 59.6526L94.1345 57.0617L92.1153 57.6375L89.8076 62.8192L92.6922 65.1222L97.8845 63.6828V65.9858L95.5768 68.0009Z" fill="#070518"/>
<path d="M141.154 65.1222L139.134 66.5616L141.442 66.8494L141.154 65.1222Z" fill="#D0CFD2"/>
<path d="M122.115 150.045L115.769 150.909L113.75 155.803L118.365 154.939L123.558 151.197L126.442 145.151L125.288 139.106L121.538 135.651L106.25 132.197L98.1729 125.288L95.2883 120.106L94.7114 112.909L87.7883 111.47V104.273L90.6729 98.2277V95.349L83.7498 104.849L80.5768 113.485L97.8845 128.167L123.269 142.56L123.846 146.878L122.115 150.045Z" fill="#D0CFD2"/>
<path d="M59.5191 135.939L69.6152 143.424L73.6537 143.712L67.0191 137.091L69.3268 132.197L56.346 117.515L52.0191 109.167L50.5768 101.682L49.4229 101.394L48.5575 112.909L52.3075 125.864L59.5191 135.939Z" fill="#D0CFD2"/>
<path d="M67.3075 163.863L80.5768 165.015L74.5191 161.272L74.8075 156.666L64.1344 153.5L56.346 148.318L52.0191 143.424L51.4421 140.545L43.9421 141.121L46.8268 147.742L53.4614 155.803L67.3075 163.863Z" fill="#D0CFD2"/>
<path d="M68.1729 170.196L67.596 176.529L67.3075 177.681V184.878L70.1921 192.938L72.7883 187.469L73.0768 179.696L76.5383 169.62L68.1729 170.196Z" fill="#D0CFD2"/>
<path d="M157.596 191.499L156.154 191.211V200.999L154.134 212.226L163.077 207.332L172.019 194.953L172.308 186.893L169.423 186.605L169.711 180.56H166.538V171.348L163.365 170.772L164.519 191.499L163.077 196.393L161.634 198.984H159.615L157.596 191.499Z" fill="#D0CFD2"/>
<path d="M82.596 176.529L79.7114 179.696V180.56L78.2691 188.044L78.846 195.529L82.0191 203.302L86.0575 208.483L94.1345 193.514L102.788 185.454L98.4614 198.408L98.7498 214.817L112.596 213.089L124.423 206.468L131.923 197.832L136.827 184.302L135.096 181.711L132.211 189.484L124.711 197.256H120.096L112.019 201.287H103.365L102.788 191.787L104.519 184.014L97.0191 186.893L85.7691 194.953L82.596 187.469V176.529Z" fill="#D0CFD2"/>
<path d="M139.134 195.529L137.115 193.802L136.538 200.135L133.654 207.908V213.953L135.673 213.665L141.442 211.074L148.077 205.605L153.269 197.544L156.154 188.62L155 185.741L152.692 186.029L149.808 195.817L142.019 203.014L139.423 202.726L139.134 195.529Z" fill="#D0CFD2"/>
<path d="M153.846 65.698L141.442 66.8495L139.135 66.5616L134.231 70.0161L133.942 74.0463L144.038 74.6221V78.9402L146.923 79.5159L149.808 78.6523L150.673 79.8038H152.692L159.615 83.5462L170.288 94.7732L171.731 94.4854L172.596 90.4551L174.904 89.5915L175.192 72.0312L172.885 71.7433V65.9858L168.846 65.4101L167.981 67.1373H162.212V71.1676H155L153.846 65.698Z" fill="#EC332E"/>
<path d="M106.827 69.7282L101.635 73.4706V76.6372L103.654 77.5008L114.615 73.4706L123.558 72.3191L123.846 70.8797L122.692 69.4403L114.327 67.4252L106.827 69.7282Z" fill="#EC332E"/>
<path d="M181.827 129.03L186.442 123.561L185.288 122.409L171.154 125.576L172.308 129.606L175.192 132.773L182.115 135.651L181.827 129.03Z" fill="#EC332E"/>
<path d="M170.865 148.318L168.558 148.606V169.333L172.019 169.908V179.12L175.481 179.696L175.769 185.454L179.519 186.317L179.231 192.65L182.115 193.226V204.741L184.423 203.302L188.462 196.681L191.346 189.196L192.788 179.984V168.181L189.615 167.605L189.904 149.757L187.019 151.484L182.404 158.681H180.385L170.865 148.318Z" fill="#EC332E"/>
<path d="M115.481 32.5924L110.865 34.8954L108.558 38.062L106.827 40.6529L105.096 42.0923L103.365 43.8195L102.788 49.8649L106.538 49.0012L106.827 50.7285L105.673 51.0164V52.4557L109.423 58.5011L109.135 62.8192L113.75 62.5313L114.327 61.6677L113.173 61.3798L113.461 49.0012H122.692L123.846 45.8346L122.404 42.668H113.173V38.3499L118.365 38.062L118.654 35.1833L120.673 35.4712V38.062L123.558 38.3499L126.731 40.6529L128.461 46.4104L124.711 52.4557L117.5 53.3194V61.092L116.346 61.3798L115.481 62.2435H119.808L126.731 64.8343L132.788 60.2283L135.673 51.5921L132.5 51.3042L132.788 49.577H135.385L135.961 46.4104L133.942 40.9408L126.442 32.8803L115.481 32.5924Z" fill="#FBBC0A"/>
<path d="M91.8269 52.7436L89.5192 54.183L88.6538 56.7738L86.0576 58.5011L85.1923 64.5464L88.0769 69.7282L91.25 71.7433L95.5769 72.319L98.75 69.4403L97.8846 68.5767L95.5769 68.0009L97.8846 65.9858V63.6828L92.6923 65.1222L89.8076 62.8192L92.1153 57.6375L94.1346 57.0617L94.423 59.6526L95 61.9556L98.4615 61.3798L99.9038 62.5313L99.0384 67.4252L99.9038 68.8646L104.231 65.4101L104.519 59.6526L102.5 56.1981L97.3076 52.7436H91.8269Z" fill="#FBBC0A"/>
<path d="M175.481 103.409L172.596 103.697L167.692 112.334L166.538 119.818L195.673 115.788H207.5L205.192 111.47L198.558 105.712L195.961 107.44L189.038 103.985L175.481 103.409Z" fill="#FBBC0A"/>
<path d="M168.846 132.485L165.673 126.727L163.942 127.015L164.519 131.909L172.019 141.409L181.827 146.303L187.596 140.545L178.942 140.257L173.75 137.666L168.846 132.485Z" fill="#FBBC0A"/>
<path d="M110.865 34.8954L108.269 36.3348L108.558 38.062L110.865 34.8954Z" fill="#E9E9EA"/>
<path d="M105.096 40.365L104.231 42.0923H105.096L106.827 40.6529L105.096 40.365Z" fill="#E9E9EA"/>
<path d="M86.9231 55.9102L86.0577 58.5011L88.6539 56.7738L89.5192 54.183L86.9231 55.9102Z" fill="#E9E9EA"/>
<path d="M50 99.0913L49.4231 101.394L50.5769 101.682L50 99.0913Z" fill="#E9E9EA"/>
<path d="M176.058 101.97L175.481 103.409L189.038 103.985L189.904 103.697L189.038 102.258L185.288 101.106H182.404L176.058 101.97Z" fill="#E9E9EA"/>
<path d="M72.7885 187.469L70.1923 192.938L71.6346 196.969L73.3654 198.12L75.6731 187.469H72.7885Z" fill="#E9E9EA"/>
<path d="M102.5 78.6523L103.654 77.5008L101.635 76.6371V73.4705L101.058 78.0765L102.5 78.6523Z" fill="#9D2F29"/>
<path d="M149.808 78.6523L146.923 79.5159L150.673 79.8038L149.808 78.6523Z" fill="#9D2F29"/>
<path d="M171.154 97.3641L171.731 94.4853L170.288 94.7732L159.615 83.5461L152.692 79.8038L153.558 84.6976L157.885 86.7127L165.385 95.9247L171.154 97.3641Z" fill="#9D2F29"/>
<path d="M185.288 99.9549L174.615 101.106H182.404H185.288H188.461L185.288 99.9549Z" fill="#9D2F29"/>
<path d="M188.173 121.833L185.288 122.409L186.442 123.561L188.173 121.833Z" fill="#9D2F29"/>
<path d="M169.711 146.015L168.558 148.606L170.865 148.318L180.385 158.681H182.404L187.019 151.484L189.904 149.757L190.192 149.469L189.904 146.878H188.461L183.846 151.197L180.673 152.06L169.711 146.015Z" fill="#9D2F29"/>
<path fill-rule="evenodd" clip-rule="evenodd" d="M103.365 43.8195L104.231 42.0923H105.096L103.365 43.8195ZM105.673 52.4557L103.942 51.0164H105.673V52.4557ZM95 61.9556H92.1154L92.6923 59.9404L94.423 59.6526L95 61.9556ZM97.8846 68.5767L99.0384 67.4252L99.9038 68.8645L98.75 69.4403L97.8846 68.5767ZM172.596 103.697L174.615 101.106H182.404L176.058 101.97L175.481 103.409L172.596 103.697ZM189.038 103.985L189.904 103.697L189.038 102.258L185.288 101.106H188.462L198.558 105.712L195.962 107.44L189.038 103.985Z" fill="#ECB44B"/>
<path d="M116.346 61.3798L114.327 61.6677L113.75 62.5313L115.481 62.2434L116.346 61.3798Z" fill="#737078"/>
<path d="M86.6345 163.575L84.6153 164.439L85.4807 164.727L86.6345 163.575Z" fill="#737078"/>
<path d="M79.7114 179.696L79.1345 180.56H79.7114V179.696Z" fill="#737078"/>
<path d="M135.961 46.4104L135.385 49.577L135.673 51.5921L132.788 60.2283L126.731 64.8343L129.038 66.8494L141.154 58.2132L141.731 45.5467L135.961 36.0469L126.442 32.8803L133.942 40.9408L135.961 46.4104Z" fill="#F6770A"/>
<path d="M131.346 99.3792L131.058 101.97L130.769 103.122L132.5 112.621L127.885 112.909L128.461 114.637L133.654 115.5L136.25 119.818L141.442 123.849L149.231 124.712L153.269 122.985L155.865 120.394L158.461 114.349V104.561L152.404 94.7732L144.615 91.6066L143.75 91.3187H140.577L134.808 94.1975L131.346 99.3792Z" fill="#070518"/>
<path d="M143.75 106.576L146.346 102.546V100.531L144.904 97.652L140.865 96.2126L136.827 98.5156L135.961 101.97L139.711 106.864L143.75 106.576Z" fill="#FEFEFE"/>
<path d="M142.019 111.47L139.135 111.182L137.404 113.485L138.269 116.364L141.442 116.652L143.173 114.349L142.019 111.47Z" fill="#FEFEFE"/>
<defs>
<radialGradient id="paint0_angular_351_62" cx="0" cy="0" r="1" gradientUnits="userSpaceOnUse" gradientTransform="translate(111 125) rotate(70.5095) scale(94.41 99.3827)">
<stop offset="0.217554" stop-color="#2197C7"/>
<stop offset="0.645714" stop-color="#C3E6F5"/>
<stop offset="0.859143" stop-color="#87CEEB"/>
</radialGradient>
</defs>
</svg>
