<svg width="240" height="240" viewBox="0 0 240 240" fill="none" xmlns="http://www.w3.org/2000/svg">
<g filter="url(#filter0_d_576_1188)">
<path d="M53.6664 97.3324C51.8942 93.0527 53.9166 88.1423 58.1836 86.3648L152.829 46.9388C157.096 45.1613 161.991 47.1897 163.764 51.4694L188.232 110.556C190.004 114.836 187.982 119.746 183.715 121.524L89.0695 160.95C84.8025 162.727 79.9067 160.699 78.1345 156.419L53.6664 97.3324Z" fill="#41525F"/>
<path fill-rule="evenodd" clip-rule="evenodd" d="M71.6519 91.5438C70.1228 92.1807 68.9023 93.2457 68.0694 94.5429C67.9131 94.7864 67.5895 94.8567 67.3467 94.6999C67.1039 94.5431 67.0339 94.2185 67.1902 93.975C68.1344 92.5044 69.5192 91.2965 71.2508 90.5752L76.0796 88.5636C76.3463 88.4525 76.6523 88.5793 76.763 88.8468C76.8738 89.1143 76.7474 89.4212 76.4807 89.5323L71.6519 91.5438ZM78.6946 88.0422C78.5838 87.7747 78.7102 87.4678 78.9769 87.3567L88.6345 83.3336C88.9012 83.2225 89.2072 83.3493 89.318 83.6168C89.4287 83.8843 89.3023 84.1912 89.0357 84.3023L79.378 88.3253C79.1113 88.4364 78.8053 88.3097 78.6946 88.0422ZM91.2495 82.8122C91.1387 82.5447 91.2651 82.2378 91.5318 82.1267L101.189 78.1036C101.456 77.9926 101.762 78.1193 101.873 78.3868C101.984 78.6543 101.857 78.9612 101.591 79.0723L91.9329 83.0953C91.6663 83.2064 91.3603 83.0797 91.2495 82.8122ZM103.804 77.5822C103.694 77.3147 103.82 77.0078 104.087 76.8967L113.744 72.8737C114.011 72.7626 114.317 72.8893 114.428 73.1568C114.539 73.4243 114.412 73.7312 114.146 73.8423L104.488 77.8654C104.221 77.9765 103.915 77.8497 103.804 77.5822ZM116.359 72.3522C116.249 72.0847 116.375 71.7778 116.642 71.6667L126.299 67.6437C126.566 67.5326 126.872 67.6594 126.983 67.9268C127.094 68.1943 126.967 68.5012 126.701 68.6123L117.043 72.6354C116.776 72.7465 116.47 72.6197 116.359 72.3522ZM128.914 67.1222C128.804 66.8547 128.93 66.5478 129.197 66.4368L138.854 62.4137C139.121 62.3026 139.427 62.4294 139.538 62.6969C139.649 62.9643 139.522 63.2712 139.255 63.3823L129.598 67.4054C129.331 67.5165 129.025 67.3897 128.914 67.1222ZM141.469 61.8922C141.359 61.6248 141.485 61.3179 141.752 61.2068L146.58 59.1952C148.312 58.4739 150.143 58.3425 151.848 58.7094C152.13 58.7702 152.31 59.049 152.249 59.3322C152.189 59.6154 151.911 59.7957 151.628 59.735C150.124 59.4113 148.511 59.5269 146.982 60.1639L142.153 62.1754C141.886 62.2865 141.58 62.1597 141.469 61.8922ZM66.5878 96.5425C66.8702 96.6032 67.0499 96.8821 66.9894 97.1653C66.6666 98.6738 66.7819 100.292 67.417 101.826L69.6283 107.166C69.739 107.433 69.6126 107.74 69.346 107.851C69.0793 107.962 68.7733 107.836 68.6625 107.568L66.4512 102.228C65.7321 100.491 65.601 98.6554 65.9669 96.9452C66.0275 96.662 66.3055 96.4817 66.5878 96.5425ZM154.086 60.0934C154.243 59.8499 154.566 59.7796 154.809 59.9364C156.275 60.8834 157.48 62.2723 158.199 64.009L160.41 69.3489C160.521 69.6164 160.395 69.9233 160.128 70.0344C159.861 70.1455 159.555 70.0187 159.444 69.7512L157.233 64.4113C156.598 62.8777 155.536 61.6536 154.243 60.8182C154 60.6614 153.93 60.3369 154.086 60.0934ZM161.054 72.2697C161.32 72.1586 161.626 72.2854 161.737 72.5528L166.16 83.2326C166.27 83.5001 166.144 83.807 165.877 83.9181C165.611 84.0292 165.305 83.9024 165.194 83.6349L160.771 72.9552C160.66 72.6877 160.787 72.3808 161.054 72.2697ZM70.2716 110.087C70.5383 109.975 70.8443 110.102 70.955 110.37L75.3776 121.049C75.4884 121.317 75.362 121.624 75.0953 121.735C74.8286 121.846 74.5226 121.719 74.4118 121.452L69.9893 110.772C69.8785 110.504 70.0049 110.198 70.2716 110.087ZM166.803 86.1534C167.07 86.0423 167.376 86.1691 167.486 86.4366L171.909 97.1164C172.02 97.3839 171.893 97.6908 171.627 97.8018C171.36 97.9129 171.054 97.7862 170.943 97.5187L166.521 86.8389C166.41 86.5714 166.536 86.2645 166.803 86.1534ZM76.0209 123.97C76.2876 123.859 76.5936 123.986 76.7044 124.253L81.1269 134.933C81.2377 135.201 81.1113 135.508 80.8446 135.619C80.5779 135.73 80.2719 135.603 80.1612 135.336L75.7386 124.656C75.6278 124.388 75.7542 124.081 76.0209 123.97ZM81.7703 137.854C82.0369 137.743 82.3429 137.87 82.4537 138.137L84.665 143.477C85.3001 145.011 86.3619 146.235 87.6552 147.07C87.898 147.227 87.9681 147.551 87.8117 147.795C87.6554 148.038 87.3318 148.109 87.089 147.952C85.6228 147.005 84.4184 145.616 83.6992 143.879L81.4879 138.539C81.3772 138.272 81.5036 137.965 81.7703 137.854ZM172.552 100.037C172.819 99.9261 173.125 100.053 173.236 100.32L175.447 105.66C176.166 107.397 176.297 109.233 175.931 110.943C175.871 111.226 175.593 111.407 175.31 111.346C175.028 111.285 174.848 111.006 174.909 110.723C175.232 109.215 175.116 107.596 174.481 106.063L172.27 100.723C172.159 100.455 172.286 100.148 172.552 100.037ZM89.6489 148.556C89.7095 148.273 89.9875 148.093 90.2698 148.153C91.7739 148.477 93.3875 148.361 94.9166 147.724L99.7454 145.713C100.012 145.602 100.318 145.729 100.429 145.996C100.54 146.264 100.413 146.57 100.147 146.682L95.3177 148.693C93.5861 149.414 91.7556 149.546 90.0504 149.179C89.7681 149.118 89.5883 148.839 89.6489 148.556ZM174.551 113.188C174.794 113.345 174.864 113.67 174.708 113.913C173.764 115.384 172.379 116.592 170.647 117.313L165.819 119.325C165.552 119.436 165.246 119.309 165.135 119.042C165.024 118.774 165.151 118.467 165.417 118.356L170.246 116.345C171.775 115.708 172.996 114.643 173.829 113.345C173.985 113.102 174.309 113.032 174.551 113.188ZM102.36 145.192C102.25 144.924 102.376 144.617 102.643 144.506L112.3 140.483C112.567 140.372 112.873 140.499 112.984 140.766C113.095 141.034 112.968 141.341 112.701 141.452L103.044 145.475C102.777 145.586 102.471 145.459 102.36 145.192ZM114.915 139.962C114.805 139.694 114.931 139.387 115.198 139.276L124.855 135.253C125.122 135.142 125.428 135.269 125.539 135.536C125.65 135.804 125.523 136.111 125.256 136.222L115.599 140.245C115.332 140.356 115.026 140.229 114.915 139.962ZM127.47 134.732C127.36 134.464 127.486 134.157 127.753 134.046L137.41 130.023C137.677 129.912 137.983 130.039 138.094 130.306C138.204 130.574 138.078 130.881 137.811 130.992L128.154 135.015C127.887 135.126 127.581 134.999 127.47 134.732ZM140.025 129.502C139.914 129.234 140.041 128.927 140.308 128.816L149.965 124.793C150.232 124.682 150.538 124.809 150.649 125.076C150.759 125.344 150.633 125.651 150.366 125.762L140.709 129.785C140.442 129.896 140.136 129.769 140.025 129.502ZM152.58 124.272C152.469 124.004 152.596 123.697 152.863 123.586L162.52 119.563C162.787 119.452 163.093 119.579 163.204 119.846C163.314 120.114 163.188 120.421 162.921 120.532L153.264 124.555C152.997 124.666 152.691 124.539 152.58 124.272Z" fill="#8E98A0"/>
<path d="M117.97 61.4096L133.393 54.985L143.713 79.9066C145.482 84.1781 143.463 89.0791 139.204 90.8532C134.945 92.6273 130.059 90.6028 128.29 86.3312L117.97 61.4096Z" fill="#5A6974"/>
<path d="M139.284 83.7669C139.873 85.1907 139.2 86.8244 137.781 87.4157C136.361 88.0071 134.732 87.3322 134.143 85.9084C133.553 84.4846 134.226 82.8509 135.645 82.2595C137.065 81.6682 138.694 82.343 139.284 83.7669Z" fill="#A9B1B7"/>
<path d="M50.4575 91.9678C50.4575 91.9678 82.334 91.9677 86.9808 91.9677C91.6276 91.9677 96.595 101.524 104.366 101.524C112.138 101.524 117.906 91.9677 121.752 91.9677C125.598 91.9677 189.542 91.9678 189.542 91.9678V140.74C189.542 167.676 168.303 189.511 142.103 189.511H104.366C74.5934 189.511 50.4575 164.698 50.4575 134.089V91.9678Z" fill="#618E97"/>
<path d="M50.4575 113.994C50.4575 113.994 78.4293 113.994 83.0762 113.994C87.723 113.994 92.6903 121.392 100.462 121.392C108.233 121.392 114.002 113.994 117.847 113.994C121.693 113.994 189.542 113.994 189.542 113.994V151.753C189.542 172.606 168.303 189.511 142.103 189.511H104.366C74.5934 189.511 50.4575 170.301 50.4575 146.604V113.994Z" fill="#618E97"/>
<path fill-rule="evenodd" clip-rule="evenodd" d="M81.1125 101.932L88.8739 101.932C90.8082 101.932 92.5734 103.131 94.0241 104.234C94.7145 104.758 94.85 105.745 94.3267 106.438C93.8034 107.13 92.8195 107.266 92.1291 106.741C90.6068 105.584 89.6246 105.078 88.8739 105.078L81.1125 105.078C80.2462 105.078 79.5439 104.374 79.5439 103.505C79.5439 102.636 80.2462 101.932 81.1125 101.932ZM116.006 102.754C116.781 102.318 117.697 101.932 118.678 101.932L124.345 101.932C125.212 101.932 125.914 102.636 125.914 103.505C125.914 104.374 125.212 105.078 124.345 105.078L118.678 105.078C118.492 105.078 118.139 105.162 117.541 105.498C116.96 105.825 116.297 106.303 115.511 106.907C114.823 107.435 113.838 107.303 113.312 106.613C112.786 105.923 112.917 104.935 113.605 104.407C114.4 103.797 115.215 103.2 116.006 102.754ZM131.889 103.505C131.889 102.636 132.591 101.932 133.457 101.932L144.851 101.932C145.717 101.932 146.42 102.636 146.42 103.505C146.42 104.374 145.717 105.078 144.851 105.078L133.457 105.078C132.591 105.078 131.889 104.374 131.889 103.505ZM152.391 103.505C152.391 102.636 153.093 101.932 153.959 101.932L165.352 101.932C166.218 101.932 166.921 102.636 166.921 103.505C166.921 104.374 166.218 105.079 165.352 105.079L153.959 105.078C153.093 105.078 152.391 104.374 152.391 103.505ZM68.6808 101.932C69.5471 101.932 70.2494 102.636 70.2494 103.505C70.2494 104.374 69.5471 105.079 68.6808 105.079L62.4837 105.079V108.097C62.4837 108.966 61.7814 109.671 60.915 109.671C60.0487 109.671 59.3464 108.966 59.3464 108.097V103.505C59.3464 102.636 60.0487 101.932 60.915 101.932L68.6808 101.932ZM172.887 103.505C172.887 102.636 173.589 101.932 174.455 101.932L180.13 101.932C180.997 101.932 181.699 102.636 181.699 103.505V108.822C181.699 109.691 180.997 110.396 180.131 110.396C179.264 110.396 178.562 109.691 178.562 108.822V105.079L174.455 105.079C173.589 105.079 172.887 104.374 172.887 103.505ZM97.8333 109.154C98.2192 108.376 99.1608 108.059 99.9364 108.446C101.166 109.06 102.428 109.433 103.776 109.433C105.101 109.433 106.386 109.072 107.653 108.473C108.437 108.103 109.372 108.44 109.741 109.225C110.11 110.011 109.774 110.949 108.991 111.319C107.428 112.058 105.683 112.58 103.776 112.58C101.825 112.58 100.083 112.034 98.5391 111.263C97.7634 110.876 97.4475 109.932 97.8333 109.154ZM60.915 113.871C61.7814 113.871 62.4837 114.576 62.4837 115.445V124.629C62.4837 125.498 61.7814 126.202 60.915 126.202C60.0487 126.202 59.3464 125.498 59.3464 124.629V115.445C59.3464 114.576 60.0487 113.871 60.915 113.871ZM180.131 115.756C180.997 115.756 181.699 116.461 181.699 117.33V127.964C181.699 128.833 180.997 129.537 180.131 129.537C179.264 129.537 178.562 128.833 178.562 127.964V117.33C178.562 116.461 179.264 115.756 180.131 115.756ZM60.915 130.403C61.7814 130.403 62.4837 131.107 62.4837 131.976V136.568C62.4837 138.16 62.578 139.73 62.7616 141.274C62.8641 142.137 62.2499 142.92 61.3897 143.023C60.5295 143.126 59.749 142.51 59.6464 141.647C59.4482 139.979 59.3464 138.284 59.3464 136.568V131.976C59.3464 131.107 60.0487 130.403 60.915 130.403ZM180.131 134.898C180.997 134.898 181.699 135.602 181.699 136.471V141.788C181.699 143.819 181.538 145.815 181.227 147.766C181.091 148.624 180.286 149.208 179.431 149.071C178.575 148.934 177.993 148.127 178.13 147.269C178.414 145.482 178.562 143.652 178.562 141.788V136.471C178.562 135.602 179.264 134.898 180.131 134.898ZM62.3866 147.614C63.2116 147.349 64.0947 147.805 64.3589 148.633C65.3202 151.643 66.6325 154.512 68.2524 157.199C68.7007 157.943 68.4632 158.91 67.7219 159.359C66.9805 159.809 66.0162 159.571 65.5679 158.827C63.8242 155.935 62.4089 152.842 61.3712 149.592C61.1069 148.765 61.5615 147.879 62.3866 147.614ZM177.726 154.882C178.52 155.23 178.882 156.158 178.535 156.954C176.935 160.622 174.773 164.012 172.154 167.029C171.585 167.685 170.594 167.753 169.941 167.183C169.288 166.612 169.219 165.619 169.788 164.963C172.204 162.179 174.192 159.059 175.66 155.693C176.008 154.897 176.933 154.534 177.726 154.882ZM70.5001 163.144C71.1494 162.568 72.1407 162.63 72.7143 163.281C74.7821 165.628 77.118 167.762 79.6787 169.639C80.378 170.152 80.5305 171.137 80.0192 171.838C79.5079 172.54 78.5264 172.692 77.8271 172.18C75.0863 170.17 72.5826 167.884 70.3632 165.364C69.7896 164.713 69.8509 163.719 70.5001 163.144ZM165.474 171.258C165.98 171.963 165.821 172.947 165.118 173.455C161.942 175.749 158.412 177.627 154.62 179.003C153.806 179.298 152.906 178.876 152.612 178.058C152.317 177.241 152.738 176.339 153.553 176.044C157.072 174.767 160.344 173.026 163.284 170.901C163.987 170.394 164.968 170.553 165.474 171.258ZM84.0207 174.283C84.4083 173.505 85.3506 173.191 86.1254 173.579C88.905 174.974 91.8608 176.1 94.9536 176.922C95.7911 177.144 96.2902 178.005 96.0685 178.845C95.8468 179.685 94.9881 180.186 94.1506 179.963C90.8497 179.087 87.6928 177.884 84.7219 176.393C83.9471 176.005 83.6332 175.06 84.0207 174.283ZM146.744 179.49C146.857 180.351 146.253 181.142 145.394 181.256C143.457 181.512 141.478 181.645 139.468 181.645H134.976C134.109 181.645 133.407 180.941 133.407 180.072C133.407 179.203 134.109 178.498 134.976 178.498H139.468C141.341 178.498 143.182 178.375 144.983 178.136C145.842 178.022 146.63 178.628 146.744 179.49ZM100.681 179.678C100.766 178.813 101.534 178.181 102.396 178.266C103.949 178.42 105.526 178.498 107.123 178.498H111.615C112.481 178.498 113.184 179.203 113.184 180.072C113.184 180.941 112.481 181.645 111.615 181.645H107.123C105.423 181.645 103.743 181.561 102.088 181.398C101.226 181.312 100.596 180.542 100.681 179.678ZM117.234 180.072C117.234 179.203 117.937 178.498 118.803 178.498H127.788C128.654 178.498 129.356 179.203 129.356 180.072C129.356 180.941 128.654 181.645 127.788 181.645H118.803C117.937 181.645 117.234 180.941 117.234 180.072Z" fill="#E8EEF0"/>
<path fill-rule="evenodd" clip-rule="evenodd" d="M52.549 88.8212V95.1143V134.971C52.549 163.934 75.959 187.414 104.837 187.414H141.438C166.85 187.414 187.451 166.752 187.451 141.264V95.1143V88.8212C190.916 88.8212 193.725 91.6387 193.725 95.1143V141.264C193.725 170.227 170.316 193.707 141.438 193.707H104.837C72.4937 193.707 46.2745 167.41 46.2745 134.971V95.1143C46.2745 91.6387 49.0837 88.8212 52.549 88.8212ZM187.451 95.1143C187.451 88.8212 187.451 88.8212 187.451 88.8212H122.092C118.948 88.8212 114.341 90.5806 113.171 91.4308C112.251 92.0993 111.136 93.0228 110.182 93.8129C109.772 94.1532 109.391 94.4688 109.068 94.7287C106.247 97.0007 105.359 97.864 103.137 97.864C101.176 97.864 100.34 97.0985 97.5816 94.7974C97.34 94.5958 97.0707 94.3669 96.7818 94.1213C95.7675 93.2588 94.511 92.1904 93.3574 91.3777C91.9009 90.3515 88.6277 88.8212 85.4902 88.8212H52.5504C52.5504 88.8212 52.549 88.8212 52.549 95.1143H86.2745C88.2399 95.1143 90.2644 96.8339 92.5478 98.7733C95.5007 101.281 98.8865 104.157 103.137 104.157C107.562 104.157 111.318 101.041 114.419 98.467C116.601 96.6564 118.46 95.1143 120 95.1143H187.451Z" fill="#618E97"/>
<path fill-rule="evenodd" clip-rule="evenodd" d="M46.2745 95.1143C46.2745 94.1837 46.4759 93.3003 46.8374 92.5054C46.9211 92.3213 47.0135 92.1419 47.1139 91.9678C47.8562 90.6807 49.04 89.6818 50.4575 89.1793C51.1117 88.9474 51.8157 88.8212 52.549 88.8212V91.9678C52.5494 88.8212 52.5504 88.8212 52.5504 88.8212L54.8987 88.8212C55.7451 87.7746 56.8557 86.918 58.1836 86.3648L117.988 61.4524L117.97 61.4096L133.393 54.985L133.41 55.0278L152.829 46.9388C157.096 45.1613 161.991 47.1897 163.764 51.4694L179.231 88.8212L187.451 88.8212C188.184 88.8212 188.888 88.9474 189.542 89.1793C190.96 89.6818 192.144 90.6807 192.886 91.9678C193.42 92.8934 193.725 93.9681 193.725 95.1143V141.264C193.725 144.856 193.365 148.364 192.68 151.753C187.877 175.48 167.103 193.39 142.103 193.703C141.881 193.705 141.66 193.707 141.438 193.707H104.837C104.68 193.707 104.523 193.706 104.366 193.705C76.2034 193.483 52.775 173.322 47.4229 146.604C46.6697 142.844 46.2745 138.953 46.2745 134.971V95.1143ZM183.419 82.528H187.451C194.382 82.528 200 88.1631 200 95.1143V141.264C200 173.703 173.781 200 141.438 200H104.837C69.0283 200 40 170.885 40 134.971V95.1143C40 88.2162 45.5329 82.6142 52.3905 82.529C53.4024 81.739 54.5354 81.0702 55.7769 80.553L114.874 55.935C115.094 55.8103 115.324 55.6975 115.563 55.5978L130.986 49.1732C131.222 49.0749 131.462 48.9917 131.706 48.9235L150.422 41.127C157.889 38.0163 166.457 41.5661 169.558 49.0555L183.419 82.528Z" fill="#FFFDFA"/>
</g>
<defs>
<filter id="filter0_d_576_1188" x="33" y="33" width="176" height="176" filterUnits="userSpaceOnUse" color-interpolation-filters="sRGB">
<feFlood flood-opacity="0" result="BackgroundImageFix"/>
<feColorMatrix in="SourceAlpha" type="matrix" values="0 0 0 0 0 0 0 0 0 0 0 0 0 0 0 0 0 0 127 0" result="hardAlpha"/>
<feOffset dx="1" dy="1"/>
<feGaussianBlur stdDeviation="4"/>
<feComposite in2="hardAlpha" operator="out"/>
<feColorMatrix type="matrix" values="0 0 0 0 0 0 0 0 0 0 0 0 0 0 0 0 0 0 0.3 0"/>
<feBlend mode="normal" in2="BackgroundImageFix" result="effect1_dropShadow_576_1188"/>
<feBlend mode="normal" in="SourceGraphic" in2="effect1_dropShadow_576_1188" result="shape"/>
</filter>
</defs>
</svg>
