<svg width="172" height="172" viewBox="0 0 172 172" fill="none" xmlns="http://www.w3.org/2000/svg">
<g filter="url(#filter0_d_773_1422)">
<path d="M24.4422 56.015C23.0699 51.9322 25.3353 47.5324 29.5021 46.1878L121.84 16.3898C126.006 15.0451 130.497 17.2648 131.869 21.3476L148.83 71.807C150.202 75.8898 147.937 80.2896 143.77 81.6342L51.4322 111.432C47.2655 112.777 42.7751 110.557 41.4028 106.474L24.4422 56.015Z" fill="#4F4F4F"/>
<path d="M92.7871 25.7653L107.412 21.0456L114.862 43.2085C116.192 47.1658 113.996 51.4303 109.958 52.7336C105.919 54.0369 101.567 51.8854 100.237 47.9282L92.7871 25.7653Z" fill="#E50855"/>
<path d="M109.873 45.4572C110.303 46.7359 109.593 48.114 108.288 48.5351C106.983 48.9563 105.577 48.261 105.147 46.9823C104.717 45.7036 105.427 44.3255 106.732 43.9044C108.037 43.4832 109.443 44.1784 109.873 45.4572Z" fill="#D8CC1B"/>
<path d="M19.9716 61.6267C19.9716 61.6267 50.2373 61.6266 54.6493 61.6266C59.0614 61.6266 63.7777 70.4911 71.1564 70.4911C78.5352 70.4911 84.0122 61.6266 87.6635 61.6266C91.3148 61.6266 152.028 61.6267 152.028 61.6267V106.866C152.028 131.851 131.862 152.105 106.986 152.105H71.1564C42.8878 152.105 19.9716 129.089 19.9716 100.697V61.6267Z" fill="#00CCCD"/>
<path d="M19.9716 82.0574C19.9716 82.0574 46.53 82.0574 50.942 82.0574C55.354 82.0574 60.0704 88.9202 67.4491 88.9202C74.8278 88.9202 80.3049 82.0574 83.9562 82.0574C87.6075 82.0574 152.028 82.0574 152.028 82.0574V117.081C152.028 136.425 131.862 152.105 106.986 152.105H71.1564C42.8878 152.105 19.9716 134.286 19.9716 112.305V82.0574Z" fill="#00CCCD"/>
<path fill-rule="evenodd" clip-rule="evenodd" d="M21.9574 58.708V64.5454V101.515C21.9574 128.381 44.1844 150.16 71.6028 150.16H106.355C130.483 150.16 150.043 130.994 150.043 107.353V64.5454V58.708C153.333 58.708 156 61.3215 156 64.5454V107.353C156 134.218 133.773 155.997 106.355 155.997H71.6028C40.8942 155.997 16 131.605 16 101.515V64.5454C16 61.3215 18.6672 58.708 21.9574 58.708ZM150.043 64.5454C150.043 58.708 150.043 58.708 150.043 58.708H87.9858C85.0011 58.708 80.6269 60.34 79.5158 61.1286C78.6421 61.7487 77.584 62.6053 76.6785 63.3382C76.2885 63.6539 75.9269 63.9466 75.6205 64.1876C72.9418 66.2951 72.0993 67.0959 69.9894 67.0959C68.1277 67.0959 67.3335 66.3858 64.7145 64.2514C64.4851 64.0644 64.2294 63.852 63.9551 63.6242C62.992 62.8242 61.799 61.8332 60.7037 61.0794C59.3208 60.1275 56.213 58.708 53.234 58.708H21.9587C21.9587 58.708 21.9574 58.708 21.9574 64.5454H53.9787C55.8448 64.5454 57.767 66.1404 59.935 67.9393C62.7387 70.2657 65.9534 72.9333 69.9894 72.9333C74.1907 72.9333 77.7564 70.0426 80.7014 67.6552C82.773 65.9758 84.5375 64.5454 86 64.5454H150.043Z" fill="#00CCCD"/>
<path fill-rule="evenodd" clip-rule="evenodd" d="M17.5497 60.6183C18.205 59.9125 19.0345 59.3647 19.9716 59.0402C20.5927 58.8251 21.2611 58.708 21.9574 58.708V61.6267C21.9578 58.708 21.9587 58.708 21.9587 58.708H25.3474L24.4422 56.015C24.1759 55.2226 24.0466 54.4183 24.0416 53.6267C24.0361 52.7604 24.1796 51.9093 24.4553 51.1057C24.5012 50.9718 24.5508 50.8391 24.6041 50.708C25.4432 48.6404 27.1765 46.9383 29.5021 46.1878L121.84 16.3898C126.006 15.0451 130.497 17.2648 131.869 21.3476L144.427 58.708H150.043C150.739 58.708 151.407 58.8251 152.028 59.0402C152.425 59.1775 152.802 59.3549 153.155 59.5673C154 60.0756 154.706 60.7847 155.203 61.6267C155.71 62.4853 156 63.4821 156 64.5454V107.353C156 110.684 155.658 113.938 155.007 117.081C150.447 139.09 130.723 155.703 106.986 155.993C106.776 155.996 106.565 155.997 106.355 155.997H71.6028C71.4539 155.997 71.3051 155.996 71.1564 155.995C44.4165 155.789 22.172 137.089 17.0904 112.305C16.3752 108.818 16 105.209 16 101.515V64.5454C16 63.4821 16.2901 62.4853 16.797 61.6267C17.0111 61.2641 17.2638 60.9261 17.5497 60.6183ZM150.178 50.7087C157.673 50.7803 164 56.7969 164 64.5454V107.353C164 138.789 138.037 163.997 106.355 163.997H71.6028C36.6303 163.997 8 136.176 8 101.515V64.5454C8 58.8855 11.376 54.1496 16.1171 51.9798C16.7438 45.915 20.9244 40.5496 27.0452 38.5744L119.383 8.77639C127.602 6.12385 136.646 10.4492 139.452 18.7987L150.178 50.7087Z" fill="#FDFDFD"/>
<path d="M24.4422 56.015C23.0699 51.9322 25.3353 47.5324 29.5021 46.1878L121.84 16.3898C126.006 15.0451 130.497 17.2648 131.869 21.3476L148.83 71.807C150.202 75.8898 147.937 80.2896 143.77 81.6342L51.4322 111.432C47.2655 112.777 42.7751 110.557 41.4028 106.474L24.4422 56.015Z" fill="#4F4F4F"/>
<path fill-rule="evenodd" clip-rule="evenodd" d="M123.727 29.9552C123.127 28.169 121.162 27.1979 119.339 27.7862L113.496 29.672C113.235 29.7561 112.955 29.6173 112.869 29.3622C112.783 29.107 112.925 28.832 113.185 28.748L119.029 26.8621C121.373 26.1057 123.898 27.3543 124.67 29.6509L127.078 36.8134C127.164 37.0685 127.022 37.3435 126.762 37.4276C126.501 37.5116 126.221 37.3729 126.135 37.1177L123.727 29.9552ZM109.317 30.5085C109.402 30.7637 109.261 31.0387 109 31.1227L97.3125 34.8944C97.0521 34.9785 96.7715 34.8397 96.6857 34.5846C96.5999 34.3294 96.7415 34.0544 97.0019 33.9704L108.69 30.1986C108.95 30.1146 109.231 30.2533 109.317 30.5085ZM93.1335 35.7309C93.2193 35.9861 93.0777 36.261 92.8173 36.3451L81.1295 40.1168C80.8691 40.2008 80.5884 40.0621 80.5026 39.8069C80.4169 39.5518 80.5585 39.2768 80.8189 39.1927L92.5066 35.421C92.7671 35.337 93.0477 35.4757 93.1335 35.7309ZM76.9504 40.9533C77.0362 41.2084 76.8946 41.4834 76.6342 41.5675L64.9464 45.3392C64.686 45.4232 64.4054 45.2845 64.3196 45.0293C64.2338 44.7742 64.3754 44.4992 64.6358 44.4151L76.3236 40.6434C76.584 40.5594 76.8647 40.6981 76.9504 40.9533ZM128.303 42.0131C128.563 41.9291 128.844 42.0678 128.93 42.323L133.745 56.648C133.831 56.9031 133.689 57.1781 133.429 57.2622C133.168 57.3462 132.887 57.2075 132.802 56.9523L127.987 42.6273C127.901 42.3721 128.043 42.0972 128.303 42.0131ZM60.7674 46.1757C60.8532 46.4308 60.7116 46.7058 60.4511 46.7899L48.7634 50.5616C48.503 50.6456 48.2223 50.5069 48.1365 50.2517C48.0508 49.9965 48.1924 49.7216 48.4528 49.6375L60.1405 45.8658C60.401 45.7818 60.6816 45.9205 60.7674 46.1757ZM44.5843 51.398C44.6701 51.6532 44.5285 51.9282 44.2681 52.0122L38.4242 53.8981C36.6012 54.4864 35.6101 56.4113 36.2105 58.1975L38.618 65.36C38.7038 65.6152 38.5622 65.8902 38.3018 65.9742C38.0414 66.0582 37.7607 65.9195 37.6749 65.6643L35.2675 58.5018C34.4955 56.2053 35.7698 53.7304 38.1136 52.974L43.9575 51.0882C44.2179 51.0041 44.4986 51.1429 44.5843 51.398ZM134.97 61.8477C135.23 61.7637 135.511 61.9024 135.597 62.1576L138.004 69.32C138.776 71.6166 137.502 74.0915 135.158 74.8479L129.314 76.7337C129.054 76.8178 128.773 76.679 128.687 76.4239C128.602 76.1687 128.743 75.8937 129.004 75.8097L134.847 73.9238C136.67 73.3355 137.661 71.4106 137.061 69.6244L134.654 62.4619C134.568 62.2067 134.709 61.9317 134.97 61.8477ZM39.8431 70.5597C40.1035 70.4757 40.3842 70.6144 40.4699 70.8696L45.2849 85.1946C45.3707 85.4498 45.2291 85.7247 44.9687 85.8088C44.7082 85.8928 44.4276 85.7541 44.3418 85.4989L39.5268 71.1739C39.4411 70.9188 39.5827 70.6438 39.8431 70.5597ZM125.135 77.5702C125.221 77.8254 125.079 78.1003 124.819 78.1844L113.131 81.9561C112.871 82.0402 112.59 81.9014 112.504 81.6462C112.418 81.3911 112.56 81.1161 112.82 81.032L124.508 77.2603C124.769 77.1763 125.049 77.315 125.135 77.5702ZM108.952 82.7926C109.038 83.0477 108.896 83.3227 108.636 83.4068L96.948 87.1785C96.6876 87.2625 96.407 87.1238 96.3212 86.8686C96.2354 86.6135 96.377 86.3385 96.6374 86.2544L108.325 82.4827C108.586 82.3987 108.866 82.5374 108.952 82.7926ZM92.769 88.015C92.8547 88.2701 92.7132 88.5451 92.4527 88.6292L80.765 92.4009C80.5045 92.4849 80.2239 92.3462 80.1381 92.091C80.0524 91.8358 80.1939 91.5609 80.4544 91.4768L92.1421 87.7051C92.4026 87.621 92.6832 87.7598 92.769 88.015ZM46.51 90.3943C46.7704 90.3103 47.051 90.449 47.1368 90.7042L49.5443 97.8667C50.1447 99.6529 52.1092 100.624 53.9321 100.036L59.776 98.1499C60.0364 98.0658 60.3171 98.2046 60.4029 98.4597C60.4886 98.7149 60.347 98.9899 60.0866 99.0739L54.2427 100.96C51.8989 101.716 49.3731 100.468 48.6012 98.171L46.1937 91.0085C46.1079 90.7534 46.2495 90.4784 46.51 90.3943ZM76.5859 93.2373C76.6717 93.4925 76.5301 93.7675 76.2697 93.8515L64.5819 97.6233C64.3215 97.7073 64.0408 97.5686 63.9551 97.3134C63.8693 97.0582 64.0109 96.7832 64.2713 96.6992L75.9591 92.9275C76.2195 92.8434 76.5001 92.9822 76.5859 93.2373Z" fill="#888888"/>
<path d="M92.7871 25.7653L107.412 21.0456L114.862 43.2085C116.192 47.1658 113.996 51.4303 109.958 52.7336Lnan nanL109.958 52.7336C105.919 54.0369 101.567 51.8854 100.237 47.9282L92.7871 25.7653Z" fill="#E50855"/>
<path d="M109.873 45.4572C110.303 46.7359 109.593 48.114 108.288 48.5351C106.983 48.9563 105.577 48.261 105.147 46.9823C104.717 45.7036 105.427 44.3255 106.732 43.9044C108.037 43.4832 109.443 44.1784 109.873 45.4572Z" fill="#D8CC1B"/>
<path d="M19.9716 61.6267C19.9716 61.6267 50.2373 61.6266 54.6493 61.6266C59.0614 61.6266 63.7777 70.4911 71.1564 70.4911C78.5352 70.4911 84.0122 61.6266 87.6635 61.6266C91.3148 61.6266 152.028 61.6267 152.028 61.6267V106.866C152.028 131.851 131.862 152.105 106.986 152.105H71.1564C42.8878 152.105 19.9716 129.089 19.9716 100.697V61.6267Z" fill="#00CCCD"/>
<path d="M19.9716 82.0574C19.9716 82.0574 46.53 82.0574 50.942 82.0574C55.354 82.0574 60.0704 88.9202 67.4491 88.9202C74.8278 88.9202 80.3049 82.0574 83.9562 82.0574C87.6075 82.0574 152.028 82.0574 152.028 82.0574V117.081C152.028 136.425 131.862 152.105 106.986 152.105H71.1564C42.8878 152.105 19.9716 134.286 19.9716 112.305V82.0574Z" fill="#00CCCD"/>
<path fill-rule="evenodd" clip-rule="evenodd" d="M21.9574 58.708V64.5454V101.515C21.9574 128.381 44.1844 150.16 71.6028 150.16H106.355C130.483 150.16 150.043 130.994 150.043 107.353V64.5454V58.708C153.333 58.708 156 61.3215 156 64.5454V107.353C156 134.218 133.773 155.997 106.355 155.997H71.6028C40.8942 155.997 16 131.605 16 101.515V64.5454C16 61.3215 18.6672 58.708 21.9574 58.708ZM150.043 64.5454C150.043 58.708 150.043 58.708 150.043 58.708H87.9858C85.0011 58.708 80.6269 60.34 79.5158 61.1286C78.6421 61.7487 77.584 62.6053 76.6785 63.3382C76.2885 63.6539 75.9269 63.9466 75.6205 64.1876C72.9418 66.2951 72.0993 67.0959 69.9894 67.0959C68.1277 67.0959 67.3335 66.3858 64.7145 64.2514C64.4851 64.0644 64.2294 63.852 63.9551 63.6242C62.992 62.8242 61.799 61.8332 60.7037 61.0794C59.3208 60.1275 56.213 58.708 53.234 58.708H21.9587C21.9587 58.708 21.9574 58.708 21.9574 64.5454H53.9787C55.8448 64.5454 57.767 66.1404 59.935 67.9393C62.7387 70.2657 65.9534 72.9333 69.9894 72.9333C74.1907 72.9333 77.7564 70.0426 80.7014 67.6552C82.773 65.9758 84.5375 64.5454 86 64.5454H150.043Z" fill="#00CCCD"/>
<path fill-rule="evenodd" clip-rule="evenodd" d="M49.0776 70.8692L56.4467 70.8692C58.2833 70.8692 59.9593 71.9812 61.3367 73.0041C61.9922 73.4909 62.1209 74.4063 61.624 75.0486C61.1272 75.6909 60.193 75.817 59.5374 75.3302C58.0921 74.2568 57.1595 73.7878 56.4467 73.7878L49.0776 73.7879C48.255 73.7879 47.5882 73.1345 47.5882 72.3285C47.5882 71.5226 48.255 70.8692 49.0776 70.8692ZM82.208 71.6318C82.9437 71.2274 83.8137 70.8692 84.7446 70.8692L90.1257 70.8692C90.9483 70.8692 91.6151 71.5225 91.6151 72.3285C91.6151 73.1345 90.9483 73.7878 90.1257 73.7878H84.7446C84.5684 73.7878 84.2334 73.865 83.6655 74.1772C83.1135 74.4807 82.4845 74.9241 81.7378 75.4837C81.0845 75.9734 80.1497 75.8513 79.65 75.2112C79.1503 74.571 79.2748 73.6551 79.9282 73.1654C80.6831 72.5996 81.4564 72.045 82.208 71.6318ZM97.288 72.3285C97.288 71.5226 97.9549 70.8692 98.7774 70.8692L109.595 70.8692C110.418 70.8692 111.085 71.5226 111.085 72.3285C111.085 73.1345 110.418 73.7879 109.595 73.7879L98.7774 73.7879C97.9549 73.7879 97.288 73.1345 97.288 72.3285ZM116.754 72.3285C116.754 71.5226 117.421 70.8692 118.243 70.8692L129.06 70.8692C129.883 70.8692 130.55 71.5226 130.55 72.3285C130.55 73.1345 129.883 73.7879 129.06 73.7879L118.243 73.7879C117.421 73.7879 116.754 73.1345 116.754 72.3285ZM37.274 70.8692C38.0966 70.8692 38.7634 71.5226 38.7634 72.3285C38.7634 73.1345 38.0966 73.7879 37.274 73.7879L31.3901 73.7879V76.588C31.3901 77.394 30.7233 78.0473 29.9007 78.0473C29.0782 78.0473 28.4113 77.394 28.4113 76.588V72.3286C28.4113 71.5226 29.0782 70.8692 29.9007 70.8692L37.274 70.8692ZM136.214 72.3286C136.214 71.5226 136.881 70.8692 137.704 70.8692L143.092 70.8692C143.914 70.8692 144.582 71.5226 144.582 72.3286V77.2606C144.582 78.0665 143.915 78.7199 143.092 78.7199C142.27 78.7199 141.603 78.0665 141.603 77.2606V73.7879H137.704C136.881 73.7879 136.214 73.1345 136.214 72.3286ZM64.9534 77.5682C65.3198 76.8466 66.2138 76.5527 66.9503 76.9116C68.1176 77.4807 69.3158 77.8273 70.5957 77.8273C71.8541 77.8273 73.0739 77.4922 74.2772 76.9366C75.0213 76.593 75.9087 76.9054 76.2594 77.6345C76.6101 78.3636 76.2912 79.2331 75.5471 79.5767C74.0634 80.2619 72.4062 80.746 70.5957 80.746C68.7437 80.746 67.0898 80.2395 65.6235 79.5248C64.8871 79.1658 64.5871 78.2898 64.9534 77.5682ZM29.9007 81.9438C30.7233 81.9438 31.3901 82.5972 31.3901 83.4032V91.9221C31.3901 92.7281 30.7233 93.3814 29.9007 93.3814C29.0782 93.3814 28.4113 92.7281 28.4113 91.9221V83.4032C28.4113 82.5972 29.0782 81.9438 29.9007 81.9438ZM143.092 83.6924C143.915 83.6924 144.582 84.3458 144.582 85.1518V95.0158C144.582 95.8218 143.915 96.4751 143.092 96.4751C142.27 96.4751 141.603 95.8218 141.603 95.0158V85.1518C141.603 84.3458 142.27 83.6924 143.092 83.6924ZM29.9007 97.2779C30.7233 97.2779 31.3901 97.9313 31.3901 98.7372V102.997C31.3901 104.473 31.4796 105.93 31.654 107.362C31.7513 108.162 31.1682 108.888 30.3514 108.984C29.5346 109.079 28.7936 108.508 28.6962 107.708C28.508 106.161 28.4113 104.589 28.4113 102.997V98.7372C28.4113 97.9313 29.0782 97.2779 29.9007 97.2779ZM143.092 101.448C143.915 101.448 144.582 102.101 144.582 102.907V107.839C144.582 109.722 144.429 111.574 144.134 113.383C144.004 114.179 143.24 114.721 142.428 114.594C141.616 114.467 141.062 113.718 141.192 112.922C141.463 111.265 141.603 109.567 141.603 107.839V102.907C141.603 102.101 142.27 101.448 143.092 101.448ZM31.2979 113.243C32.0813 112.997 32.9197 113.42 33.1706 114.187C34.0832 116.98 35.3293 119.641 36.8673 122.133C37.293 122.823 37.0674 123.72 36.3636 124.137C35.6597 124.554 34.7441 124.333 34.3184 123.644C32.6629 120.961 31.3191 118.092 30.3338 115.078C30.0829 114.31 30.5145 113.489 31.2979 113.243ZM140.809 119.984C141.563 120.307 141.907 121.168 141.577 121.906C140.058 125.309 138.005 128.453 135.519 131.252C134.979 131.859 134.038 131.923 133.417 131.394C132.797 130.865 132.732 129.943 133.272 129.335C135.566 126.753 137.453 123.859 138.848 120.736C139.178 119.998 140.056 119.661 140.809 119.984ZM39.0015 127.647C39.6179 127.114 40.5591 127.171 41.1037 127.775C43.0671 129.952 45.2849 131.931 47.7162 133.673C48.3802 134.149 48.525 135.062 48.0395 135.712C47.554 136.363 46.6222 136.505 45.9581 136.029C43.3559 134.165 40.9787 132.044 38.8715 129.707C38.3268 129.103 38.385 128.181 39.0015 127.647ZM129.176 135.175C129.657 135.829 129.506 136.741 128.838 137.212C125.823 139.34 122.471 141.082 118.871 142.358C118.097 142.632 117.243 142.24 116.964 141.482C116.684 140.724 117.084 139.887 117.857 139.613C121.199 138.429 124.306 136.814 127.097 134.843C127.765 134.372 128.695 134.521 129.176 135.175ZM51.8388 137.98C52.2068 137.259 53.1015 136.967 53.8371 137.327C56.4763 138.621 59.2827 139.666 62.2193 140.428C63.0144 140.634 63.4883 141.433 63.2778 142.212C63.0673 142.991 62.252 143.455 61.4568 143.249C58.3227 142.436 55.3253 141.32 52.5046 139.938C51.7689 139.577 51.4709 138.7 51.8388 137.98ZM111.392 142.81C111.5 143.609 110.926 144.342 110.111 144.448C108.272 144.686 106.393 144.809 104.484 144.809H100.219C99.3963 144.809 98.7295 144.155 98.7295 143.349C98.7295 142.544 99.3963 141.89 100.219 141.89H104.484C106.262 141.89 108.01 141.776 109.72 141.554C110.536 141.448 111.284 142.011 111.392 142.81ZM67.6571 142.984C67.7378 142.182 68.4667 141.596 69.2853 141.675C70.7597 141.817 72.257 141.89 73.7734 141.89H78.0388C78.8613 141.89 79.5281 142.544 79.5281 143.349C79.5281 144.155 78.8613 144.809 78.0388 144.809H73.7734C72.1594 144.809 70.5646 144.731 68.9932 144.579C68.1746 144.5 67.5764 143.786 67.6571 142.984ZM83.3741 143.349C83.3741 142.544 84.0409 141.89 84.8634 141.89H93.3942C94.2168 141.89 94.8836 142.544 94.8836 143.349C94.8836 144.155 94.2168 144.809 93.3942 144.809H84.8634C84.0409 144.809 83.3741 144.155 83.3741 143.349Z" fill="#FDFDFD"/>
<path fill-rule="evenodd" clip-rule="evenodd" d="M54.9573 72.3285C54.9573 71.5225 55.6242 70.8692 56.4467 70.8692C58.2833 70.8692 59.9593 71.9812 61.3367 73.0041C61.9922 73.4909 62.1209 74.4063 61.624 75.0486C61.1272 75.6909 60.193 75.817 59.5374 75.3302C58.0921 74.2568 57.1595 73.7878 56.4467 73.7878C55.6242 73.7878 54.9573 73.1345 54.9573 72.3285ZM83.6655 74.1772C83.1135 74.4807 82.4845 74.9241 81.7378 75.4837C81.0845 75.9734 80.1497 75.8513 79.65 75.2112C79.1503 74.571 79.2748 73.6551 79.9282 73.1654C80.6831 72.5996 81.4564 72.045 82.208 71.6318C82.9437 71.2274 83.8137 70.8692 84.7446 70.8692C85.5672 70.8692 86.2339 71.5225 86.2339 72.3285C86.2339 73.1345 85.5672 73.7878 84.7446 73.7878C84.5684 73.7878 84.2334 73.865 83.6655 74.1772ZM64.9534 77.5682C65.3198 76.8466 66.2138 76.5527 66.9503 76.9116C68.1176 77.4807 69.3158 77.8273 70.5957 77.8273C71.8541 77.8273 73.0739 77.4922 74.2772 76.9366C75.0213 76.593 75.9087 76.9054 76.2594 77.6345C76.6101 78.3636 76.2912 79.2331 75.5471 79.5767C74.0634 80.2619 72.4062 80.746 70.5957 80.746C68.7437 80.746 67.0898 80.2395 65.6235 79.5248C64.8871 79.1658 64.5871 78.2898 64.9534 77.5682Z" fill="#3D3D3D"/>
</g>
<defs>
<filter id="filter0_d_773_1422" x="2" y="1.99854" width="168" height="167.999" filterUnits="userSpaceOnUse" color-interpolation-filters="sRGB">
<feFlood flood-opacity="0" result="BackgroundImageFix"/>
<feColorMatrix in="SourceAlpha" type="matrix" values="0 0 0 0 0 0 0 0 0 0 0 0 0 0 0 0 0 0 127 0" result="hardAlpha"/>
<feOffset/>
<feGaussianBlur stdDeviation="3"/>
<feComposite in2="hardAlpha" operator="out"/>
<feColorMatrix type="matrix" values="0 0 0 0 0 0 0 0 0 0 0 0 0 0 0 0 0 0 0.25 0"/>
<feBlend mode="normal" in2="BackgroundImageFix" result="effect1_dropShadow_773_1422"/>
<feBlend mode="normal" in="SourceGraphic" in2="effect1_dropShadow_773_1422" result="shape"/>
</filter>
</defs>
</svg>
