<svg width="244" height="244" viewBox="0 0 244 244" fill="none" xmlns="http://www.w3.org/2000/svg">
<g clip-path="url(#clip0_302_2)">
<rect width="244" height="244" fill="#2FBF71"/>
<path d="M115.029 164.673L114.61 160.959L115.029 160.959L115.029 164.673ZM117.591 160.959L117.541 162.816L117.591 164.673L117.22 162.816L117.591 160.959ZM134.489 98.4933C134.496 96.0798 134.028 93.6888 133.113 91.4575C132.197 89.2263 130.852 87.1988 129.155 85.4915C127.458 83.7842 125.442 82.4308 123.222 81.509C121.003 80.5873 118.625 80.1153 116.223 80.1201C113.822 80.125 111.445 80.6067 109.23 81.5375C107.014 82.4683 105.004 83.8299 103.313 85.5441C101.623 87.2582 100.286 89.2912 99.3797 91.5261C98.4733 93.7611 98.0152 96.154 98.0317 98.5675C98.0647 103.411 100.005 108.045 103.428 111.454C106.851 114.864 111.478 116.773 116.297 116.763C121.116 116.753 125.736 114.826 129.145 111.402C132.554 107.978 134.476 103.337 134.489 98.4933ZM132.026 98.4933C132.023 100.574 131.612 102.634 130.816 104.555C130.021 106.476 128.857 108.221 127.391 109.69C125.924 111.16 124.185 112.324 122.271 113.117C120.357 113.911 118.306 114.317 116.236 114.314C114.165 114.311 112.116 113.898 110.204 113.098C108.293 112.299 106.557 111.129 105.095 109.655C103.633 108.182 102.475 106.433 101.686 104.509C100.896 102.586 100.492 100.524 100.495 98.4436C100.502 94.2411 102.169 90.2134 105.13 87.2464C108.091 84.2795 112.104 82.6164 116.285 82.623C120.466 82.6296 124.474 84.3053 127.426 87.2816C130.378 90.2578 132.032 94.2908 132.026 98.4933ZM158.729 173.71C158.642 174.211 158.423 174.679 158.094 175.065C157.764 175.451 157.337 175.741 156.858 175.903C156.379 176.065 155.864 176.094 155.37 175.987C154.875 175.88 154.419 175.641 154.048 175.295C148.844 170.499 142.381 167.303 135.425 166.084C134.317 168.56 133.775 170.491 130.376 170.219C130.893 171.829 131.755 173.883 131.484 174.552C131.342 174.92 131.085 175.232 130.752 175.442C130.419 175.651 130.028 175.747 129.637 175.716C127.05 175.468 123.133 175.468 120.079 175.418C119.98 177.548 118.453 178.835 116.26 178.835C114.142 178.835 112.516 177.349 112.442 175.418C109.437 175.443 105.422 175.468 102.835 175.716C102.445 175.759 102.051 175.668 101.72 175.456C101.388 175.244 101.139 174.925 101.012 174.552C100.766 173.883 101.603 171.828 102.096 170.219C98.9921 170.467 98.4503 169.08 97.0955 166.084C90.1398 167.303 83.6772 170.499 78.4725 175.295C76.8712 176.805 74.1863 175.938 73.792 173.735C69.7028 150.759 73.7182 134.913 86.0598 125.356C82.5617 91.8578 92.6369 56.0816 113.772 36.968C114.453 36.3452 115.34 36 116.26 36C117.181 36 118.068 36.3452 118.748 36.968C138.43 54.7447 150.23 89.2334 146.461 125.356C158.778 134.913 162.818 150.758 158.729 173.71ZM103.673 55.3635C111.703 57.1461 120.818 57.1461 128.848 55.3635C125.435 49.5792 121.203 44.3249 116.285 39.7657C111.323 44.2964 107.071 49.555 103.673 55.3635ZM95.5929 162.569C91.1873 152.057 88.1647 141.012 86.6016 129.714C76.9207 138.33 73.8906 151.749 77.1669 171.507C82.456 167.006 88.7965 163.93 95.5929 162.569ZM117.32 128.848C117.344 127.213 115.152 127.238 115.201 128.848L116.088 175.072L116.581 175.023L117.32 128.848ZM129.538 56.4779C120.916 58.4586 111.58 58.4586 102.983 56.4779C86.306 85.1981 83.2268 127.857 101.357 166.531C103.82 166.357 107.368 165.986 112.245 165.788L111.506 128.971C111.334 122.336 121.187 122.361 121.015 128.971L120.276 165.788C123.894 165.95 127.508 166.198 131.115 166.53C147.397 133.255 148.235 88.6643 129.538 56.4779ZM145.919 129.714C144.356 141.012 141.334 152.057 136.928 162.569C143.579 163.856 150.132 167.025 155.354 171.482C158.606 151.725 155.6 138.331 145.919 129.714ZM114.388 194.483V184.579C114.388 182.103 111.925 182.103 111.925 184.579V194.483H114.388ZM121.778 201.91V187.055C121.778 184.579 119.315 184.579 119.315 187.055V201.91H121.778ZM122.271 91.1152C122.862 90.3723 122.074 89.8277 121.532 90.3723L109.215 102.752C108.55 103.494 109.215 104.163 109.954 103.494L122.271 91.1152ZM117.837 98.0476C118.305 97.4533 117.837 97.1561 117.344 97.5524L107.491 107.456C107.121 107.827 107.663 108.298 107.983 107.951L117.837 98.0476ZM122.025 96.3146C122.591 95.7697 122.025 95.4231 121.532 95.8192L114.388 102.752C113.846 103.296 114.364 103.792 114.881 103.247L122.025 96.3146ZM193.462 224.49C192.996 227.849 193.3 231.27 194.349 234.493C191.516 210.353 224.87 201.068 234.797 223.178C236.089 226.055 236.728 229.185 236.668 232.341C236.609 235.496 235.852 238.599 234.452 241.425C236.194 239.177 237.49 236.613 238.27 233.874C240.832 236.689 242.482 240.221 243 244H157.103C158.876 226.669 177.573 217.285 193.462 224.49ZM5.50781 244C2.69962 241.524 1 236.572 1 232.041C1.02465 228.228 2.26719 224.523 4.54461 221.473C6.82202 218.422 10.0139 216.188 13.6501 215.098C17.2863 214.008 21.1746 214.121 24.7423 215.42C28.3099 216.718 31.3683 219.134 33.4669 222.311C30.6396 224.7 28.4827 227.789 27.2101 231.274C35.7825 217.632 54.1839 217.88 62.5101 231.67C65.5788 231.542 68.6406 232.056 71.5011 233.18C73.1576 230.848 75.3355 228.938 77.8597 227.605C80.384 226.272 83.1841 225.553 86.0352 225.505C87.1189 227.734 88.8431 229.467 90.8878 230.606C77.3393 219.439 99.6821 201.539 107.392 217.508C106.816 215.277 105.579 213.274 103.845 211.764C104.706 209.873 106.09 208.271 107.832 207.148C109.574 206.026 111.6 205.43 113.669 205.433C115.739 205.435 117.763 206.036 119.503 207.163C121.242 208.29 122.622 209.896 123.478 211.789L123.527 211.962C121.491 212.342 119.52 213.118 117.615 214.289C132.149 208.447 145.993 224.366 138.308 238.157C141.138 237.612 144.064 237.87 146.757 238.902C149.45 239.934 151.805 241.699 153.556 244H5.50781ZM119.66 237.389C118.29 234.365 116.035 231.833 113.196 230.13C110.358 228.427 107.07 227.634 103.771 227.857L103.82 227.585L103.648 227.857C101.483 228.037 99.3754 228.651 97.4503 229.663C95.5252 230.675 93.8214 232.065 92.4396 233.75C93.8849 232.38 95.5682 231.291 97.4896 230.482C101.411 228.768 105.816 228.536 109.895 229.828C113.973 231.12 117.45 233.849 119.684 237.513L119.66 237.389Z" fill="white"/>
<path d="M116 84C112.022 84 108.206 85.5277 105.393 88.247C102.58 90.9662 101 94.6544 101 98.5C101 102.346 102.58 106.034 105.393 108.753C108.206 111.472 112.022 113 116 113C119.978 113 123.794 111.472 126.607 108.753C129.42 106.034 131 102.346 131 98.5C131 94.6544 129.42 90.9662 126.607 88.247C123.794 85.5277 119.978 84 116 84Z" fill="#2FBF71"/>
<path d="M117.302 110.096H114.824C114.74 110.097 114.656 110.08 114.577 110.048C114.499 110.016 114.428 109.969 114.368 109.909C114.308 109.849 114.26 109.778 114.228 109.7C114.195 109.622 114.178 109.538 114.178 109.453V107.594C112.662 107.448 111.178 107.021 110.189 106.437C110.072 106.365 109.98 106.257 109.927 106.129C109.874 106.002 109.864 105.86 109.896 105.726L110.653 102.703C110.677 102.607 110.723 102.518 110.787 102.442C110.851 102.367 110.931 102.307 111.022 102.268C111.113 102.229 111.212 102.211 111.311 102.217C111.409 102.222 111.506 102.25 111.592 102.298C112.779 102.97 114.116 103.333 115.48 103.355C115.897 103.355 117.266 103.283 117.266 102.393C117.266 101.943 116.993 101.434 115.016 100.752C112.695 99.9537 110.027 98.6265 110.027 95.4136C110.027 92.9356 111.651 91.0112 114.303 90.3004V88.3531C114.303 88.1825 114.371 88.019 114.492 87.8986C114.613 87.7782 114.777 87.7108 114.948 87.7111H117.426C117.511 87.7106 117.595 87.7268 117.673 87.7589C117.752 87.7909 117.823 87.8381 117.883 87.8978C117.943 87.9575 117.99 88.0284 118.023 88.1066C118.055 88.1847 118.072 88.2685 118.072 88.3531V90.0266C119.221 90.1088 120.344 90.4075 121.383 90.9069C121.513 90.9732 121.617 91.0812 121.678 91.2136C121.74 91.346 121.755 91.4952 121.722 91.6374L120.987 94.5597C120.964 94.65 120.922 94.7343 120.863 94.8067C120.804 94.879 120.731 94.9379 120.647 94.979C120.563 95.0202 120.472 95.0428 120.379 95.0453C120.285 95.0477 120.193 95.0299 120.107 94.9932L119.911 94.9088C119.246 94.6149 118.242 94.1678 116.719 94.1678C116.145 94.1678 115.186 94.2725 115.186 94.9735C115.186 95.414 115.923 95.8707 117.811 96.5946C121.057 97.7684 122.449 99.3927 122.449 102.031C122.449 104.617 120.701 106.652 117.945 107.337V109.454C117.945 109.538 117.929 109.622 117.896 109.7C117.864 109.778 117.817 109.848 117.757 109.908C117.698 109.968 117.627 110.015 117.549 110.047C117.471 110.08 117.387 110.096 117.303 110.096M115.467 108.808H116.657V106.819C116.656 106.667 116.71 106.52 116.807 106.404C116.904 106.287 117.039 106.209 117.188 106.183C119.638 105.746 121.161 104.157 121.161 102.031C121.161 100.316 120.515 98.9389 117.361 97.8013C115.395 97.0442 113.901 96.3598 113.901 94.9735C113.901 93.963 114.641 92.8799 116.719 92.8799C118.141 92.8799 119.191 93.2157 119.925 93.5128L120.342 91.8497C119.399 91.4962 118.404 91.3011 117.397 91.2721C117.232 91.2643 117.076 91.1932 116.962 91.0736C116.848 90.9539 116.784 90.7949 116.784 90.6296V88.999H115.59V90.8092C115.59 91.1155 115.375 91.3797 115.075 91.4417C112.721 91.9145 111.315 93.3985 111.315 95.414C111.315 97.3087 112.548 98.5449 115.434 99.5363C117.055 100.094 118.552 100.828 118.552 102.393C118.552 103.76 117.345 104.643 115.48 104.643C113.947 104.643 112.616 104.203 111.706 103.795L111.266 105.55C112.402 106.036 113.618 106.309 114.853 106.355C115.019 106.362 115.175 106.433 115.289 106.553C115.404 106.673 115.467 106.832 115.467 106.998L115.467 108.808ZM131.975 96.6858H122.915C122.745 96.6858 122.581 96.6181 122.461 96.4976C122.34 96.3771 122.273 96.2137 122.273 96.0433C122.273 95.8728 122.34 95.7094 122.461 95.5889C122.581 95.4684 122.745 95.4007 122.915 95.4007H131.975C132.145 95.4007 132.309 95.4684 132.429 95.5889C132.55 95.7094 132.617 95.8728 132.617 96.0433C132.617 96.2137 132.55 96.3771 132.429 96.4976C132.309 96.6181 132.145 96.6858 131.975 96.6858ZM107.499 96.6858H100.651C100.48 96.6858 100.317 96.6181 100.196 96.4976C100.076 96.3771 100.008 96.2137 100.008 96.0433C100.008 95.8728 100.076 95.7094 100.196 95.5889C100.317 95.4684 100.48 95.4007 100.651 95.4007H107.499C107.67 95.4007 107.833 95.4684 107.954 95.5889C108.074 95.7094 108.142 95.8728 108.142 96.0433C108.142 96.2137 108.074 96.3771 107.954 96.4976C107.833 96.6181 107.67 96.6858 107.499 96.6858ZM131.972 99.3827H123.949C123.778 99.3827 123.614 99.3148 123.493 99.194C123.373 99.0732 123.305 98.9093 123.305 98.7385C123.305 98.5677 123.373 98.4038 123.493 98.283C123.614 98.1622 123.778 98.0943 123.949 98.0943H131.972C132.142 98.0943 132.306 98.1622 132.427 98.283C132.548 98.4038 132.616 98.5677 132.616 98.7385C132.616 98.9093 132.548 99.0732 132.427 99.194C132.306 99.3148 132.142 99.3827 131.972 99.3827ZM108.191 99.3827H100.644C100.473 99.3827 100.309 99.3148 100.189 99.194C100.068 99.0732 100 98.9093 100 98.7385C100 98.5677 100.068 98.4038 100.189 98.283C100.309 98.1622 100.473 98.0943 100.644 98.0943H108.191C108.362 98.0943 108.525 98.1622 108.646 98.283C108.767 98.4038 108.835 98.5677 108.835 98.7385C108.835 98.9093 108.767 99.0732 108.646 99.194C108.525 99.3148 108.362 99.3827 108.191 99.3827ZM131.972 102.077H124.992C124.822 102.077 124.658 102.009 124.537 101.888C124.416 101.767 124.348 101.603 124.348 101.433C124.348 101.262 124.416 101.098 124.537 100.977C124.658 100.856 124.822 100.788 124.992 100.788H131.971C132.142 100.788 132.305 100.856 132.426 100.977C132.546 101.097 132.614 101.261 132.614 101.431C132.614 101.601 132.546 101.765 132.426 101.885C132.305 102.006 132.142 102.073 131.971 102.073M108.539 102.077H100.647C100.476 102.077 100.313 102.009 100.192 101.888C100.071 101.767 100.003 101.603 100.003 101.433C100.003 101.262 100.071 101.098 100.192 100.977C100.313 100.856 100.476 100.788 100.647 100.788H108.539C108.71 100.788 108.873 100.856 108.994 100.977C109.114 101.097 109.182 101.261 109.182 101.431C109.182 101.601 109.114 101.765 108.994 101.885C108.873 102.006 108.71 102.073 108.539 102.073" fill="white"/>
</g>
<defs>
<clipPath id="clip0_302_2">
<rect width="244" height="244" fill="white" transform="matrix(-1 0 0 1 244 0)"/>
</clipPath>
</defs>
</svg>
